<svg width="23" height="20" viewBox="0 0 23 20" fill="none" xmlns="http://www.w3.org/2000/svg">
<path fill-rule="evenodd" clip-rule="evenodd" d="M20.1867 0.529674C20.4606 0.417059 20.7587 0.382294 21.0498 0.428997C21.341 0.475701 21.6146 0.602165 21.8422 0.795228C22.0697 0.98829 22.243 1.24089 22.3439 1.52674C22.4447 1.8126 22.4695 2.12125 22.4157 2.42057L19.6108 17.985C19.3389 19.4864 17.7216 20.3181 16.3993 19.5411C15.2932 18.891 13.651 17.8907 12.1767 16.8518C11.4395 16.3317 9.18291 14.6685 9.48726 13.5232C9.74872 12.544 13.6689 8.92315 15.9107 6.76863C16.7906 5.92215 16.4072 5.41601 15.3726 6.19012C12.8035 8.11213 8.68188 11.0307 7.32211 11.8482C6.12259 12.5691 5.50247 12.6838 4.76655 12.5419C3.42393 12.2834 2.18166 11.8997 1.17063 11.4424C-0.195573 10.8246 -0.0893675 8.86914 1.23193 8.32559L20.1867 0.529674Z" fill="white"/>
</svg>
